<?xml version="1.0" encoding="UTF-8" standalone="no"?>
<!-- Created with Inkscape (http://www.inkscape.org/) -->

<svg
   width="210mm"
   height="297mm"
   viewBox="0 0 210 297"
   version="1.1"
   id="svg1"
   inkscape:version="1.4.2 (f4327f4, 2025-05-13)"
   sodipodi:docname="hat.svg"
   inkscape:export-filename="hat.png"
   inkscape:export-xdpi="96"
   inkscape:export-ydpi="96"
   xmlns:inkscape="http://www.inkscape.org/namespaces/inkscape"
   xmlns:sodipodi="http://sodipodi.sourceforge.net/DTD/sodipodi-0.dtd"
   xmlns:xlink="http://www.w3.org/1999/xlink"
   xmlns="http://www.w3.org/2000/svg"
   xmlns:svg="http://www.w3.org/2000/svg">
  <sodipodi:namedview
     id="namedview1"
     pagecolor="#505050"
     bordercolor="#eeeeee"
     borderopacity="1"
     inkscape:showpageshadow="0"
     inkscape:pageopacity="0"
     inkscape:pagecheckerboard="0"
     inkscape:deskcolor="#505050"
     inkscape:document-units="mm"
     inkscape:zoom="4.3087087"
     inkscape:cx="223.1527"
     inkscape:cy="106.1803"
     inkscape:window-width="1920"
     inkscape:window-height="1057"
     inkscape:window-x="-8"
     inkscape:window-y="-8"
     inkscape:window-maximized="1"
     inkscape:current-layer="layer1" />
  <defs
     id="defs1">
    <linearGradient
       id="linearGradient8"
       inkscape:collect="always">
      <stop
         style="stop-color:#2f2f2f;stop-opacity:1;"
         offset="0"
         id="stop7" />
      <stop
         style="stop-color:#000000;stop-opacity:0;"
         offset="1"
         id="stop8" />
    </linearGradient>
    <linearGradient
       id="linearGradient5"
       inkscape:collect="always">
      <stop
         style="stop-color:#ffffff;stop-opacity:1;"
         offset="0"
         id="stop5" />
      <stop
         style="stop-color:#ffffff;stop-opacity:0;"
         offset="1"
         id="stop6" />
    </linearGradient>
    <radialGradient
       inkscape:collect="always"
       xlink:href="#linearGradient5"
       id="radialGradient6"
       cx="22.152445"
       cy="41.280617"
       fx="22.152445"
       fy="41.280617"
       r="1.7807926"
       gradientUnits="userSpaceOnUse"
       gradientTransform="translate(1.719386,1.7961443)" />
    <radialGradient
       inkscape:collect="always"
       xlink:href="#linearGradient8"
       id="radialGradient7"
       gradientUnits="userSpaceOnUse"
       gradientTransform="matrix(3.3163843,0,0,3.3163843,-40.117288,-95.262369)"
       cx="22.152445"
       cy="41.280617"
       fx="22.152445"
       fy="41.280617"
       r="1.7807926" />
    <radialGradient
       inkscape:collect="always"
       xlink:href="#linearGradient8"
       id="radialGradient9"
       gradientUnits="userSpaceOnUse"
       gradientTransform="matrix(3.3163843,0,0,3.3163843,-40.117288,-95.262369)"
       cx="22.152445"
       cy="41.280617"
       fx="22.152445"
       fy="41.280617"
       r="1.7807926" />
    <radialGradient
       inkscape:collect="always"
       xlink:href="#linearGradient5"
       id="radialGradient10"
       gradientUnits="userSpaceOnUse"
       gradientTransform="translate(1.719386,1.7961443)"
       cx="22.152445"
       cy="41.280617"
       fx="22.152445"
       fy="41.280617"
       r="1.7807926" />
  </defs>
  <g
     inkscape:label="Layer 1"
     inkscape:groupmode="layer"
     id="layer1">
    <g
       id="g8"
       transform="translate(30.764727,-18.606212)"
       inkscape:export-filename="g8.png"
       inkscape:export-xdpi="262.84927"
       inkscape:export-ydpi="262.84927">
      <path
         id="path1"
         style="fill:#3e0c4c;fill-opacity:1;stroke-width:0.264583"
         d="m 31.156817,42.287756 c -6.118384,-1.105301 -10.141416,0.202036 -10.141046,0.981438 -3.66e-4,0.779402 4.237588,1.411265 9.465573,1.411283 5.228186,2.5e-5 9.466454,-0.631851 9.466088,-1.411283 3.7e-4,-0.779432 -3.645705,-0.052 -8.790615,-0.981438 z"
         sodipodi:nodetypes="scscs" />
      <path
         style="fill:#51285d;fill-opacity:1;stroke-width:0.264583"
         d="m 26.036415,42.692968 c 0,0 2.225992,-5.63406 5.971796,-6.647271 3.919422,-1.060174 6.708675,2.609784 6.708675,2.609784 0,0 -4.313816,-0.568012 -4.068189,1.182078 0.184242,1.31272 1.320242,3.607638 1.320242,3.607638 0,0 -0.765314,0.570999 -5.680113,0.291685 -4.914799,-0.279313 -4.252411,-1.043914 -4.252411,-1.043914 z"
         id="path2"
         sodipodi:nodetypes="cscsczc" />
      <rect
         style="fill:#734823;fill-opacity:1;stroke:none;stroke-width:0.264583;stroke-opacity:1"
         id="rect4"
         width="14.154231"
         height="0.8903963"
         x="29.506973"
         y="39.162987"
         transform="rotate(7.896795)" />
      <circle
         style="fill:url(#radialGradient7);stroke:none;stroke-width:0.877459;stroke-opacity:1"
         id="circle6"
         cx="33.348732"
         cy="41.640022"
         r="5.9057927" />
      <circle
         style="fill:#fffa5b;fill-opacity:1;stroke:none;stroke-width:0.194803;stroke-opacity:1"
         id="path4"
         cx="23.856483"
         cy="43.153519"
         r="1.0285612" />
      <circle
         style="fill:url(#radialGradient6);stroke:none;stroke-width:0.264583;stroke-opacity:1"
         id="path5"
         cx="23.87183"
         cy="43.076759"
         r="1.7807926" />
    </g>
    <path
       id="text8"
       style="font-size:3.175px;text-align:start;writing-mode:lr-tb;direction:ltr;text-anchor:start;fill:#000000;fill-opacity:1;stroke:none;stroke-width:0.54949;stroke-opacity:1"
       d="m 37.657818,18.381488 c -0.145066,0.03077 -0.283458,0.318849 -0.415336,0.863945 -0.2013,0.816381 -0.37397,1.880155 -0.518369,3.192841 l -0.482949,0.427143 c -0.479156,0.400029 -0.840034,0.599931 -1.081811,0.599931 -0.219795,0 -0.32948,-0.173235 -0.32948,-0.520514 0,-0.09671 0.01333,-0.23306 0.03971,-0.408898 l 0.01288,-0.158837 c -0.0088,-0.09231 -0.03546,-0.138444 -0.07942,-0.138444 -0.03077,0 -0.06153,0.01333 -0.0923,0.03971 -0.03077,0.02638 -0.05948,0.05917 -0.08586,0.09874 -0.02638,0.03517 -0.06326,0.0885 -0.111614,0.158837 -0.08352,0.11869 -0.177829,0.245795 -0.283332,0.382068 -0.180232,0.215401 -0.310452,0.32304 -0.389579,0.32304 -0.05715,-0.0088 -0.08586,-0.05697 -0.08586,-0.144885 0,-0.114293 0.05129,-0.275269 0.152397,-0.481877 0.07913,-0.149462 0.17752,-0.280653 0.29621,-0.394946 0.11869,-0.11869 0.24891,-0.178155 0.389581,-0.178155 0.05715,0 0.113494,0.01333 0.170642,0.03971 l 0.05259,0.01288 c 0.04835,0 0.08836,-0.02462 0.119126,-0.07298 0.0088,-0.01758 0.01288,-0.035 0.01288,-0.05259 0,-0.04835 -0.02355,-0.08728 -0.07191,-0.118054 -0.101106,-0.04836 -0.200573,-0.07298 -0.297282,-0.07298 -0.193422,0 -0.366657,0.07075 -0.520514,0.211424 -0.153857,0.140671 -0.278918,0.307775 -0.375629,0.501195 -0.123085,0.263756 -0.184594,0.483123 -0.184594,0.658961 0.0044,0.224192 0.07612,0.335919 0.216791,0.335919 0.167046,0 0.376196,-0.153772 0.626764,-0.461487 l 0.157763,-0.191034 0.07942,-0.09874 -0.01288,0.230743 c 0,0.49674 0.157859,0.744818 0.474365,0.744818 0.320903,0 0.760711,-0.230657 1.318994,-0.692229 0.137568,-0.114082 0.248705,-0.210039 0.333771,-0.287625 -0.01493,0.143575 -0.02972,0.289749 -0.044,0.438948 0,0.03956 0.01538,0.06827 0.04615,0.08586 0.02638,0.01758 0.05509,0.02683 0.08586,0.02683 0.03517,0 0.06592,-0.0092 0.0923,-0.02683 0.03077,-0.01758 0.04615,-0.04318 0.04615,-0.07834 0.105502,-0.303319 0.224431,-0.541181 0.356308,-0.712622 0.131878,-0.175836 0.252853,-0.264013 0.362751,-0.264013 l 0.05903,0.01395 c 0.109896,0.04836 0.165275,0.183634 0.165275,0.407826 0,0.145066 -0.01742,0.296794 -0.05259,0.455047 -0.03077,0.153857 -0.06153,0.272787 -0.0923,0.356309 -0.290131,0.05715 -0.564875,0.139194 -0.824236,0.244696 l -0.02039,0.0064 c -0.232986,0.109899 -0.402134,0.239046 -0.507636,0.388508 -0.105502,0.145066 -0.157763,0.281417 -0.157763,0.408898 0.01758,0.254964 0.144687,0.382067 0.382067,0.382067 0.215401,0 0.457348,-0.117857 0.7255,-0.355237 0.294526,-0.276943 0.501632,-0.585558 0.620322,-0.924045 0.320903,-0.06154 0.595649,-0.161979 0.824236,-0.302648 0.142964,-0.08798 0.280544,-0.216496 0.413193,-0.385289 -0.01625,0.144362 -0.02469,0.265677 -0.02469,0.364896 0,0.285737 0.05947,0.433378 0.178155,0.442169 h 0.01932 c 0.140668,0 0.301644,-0.129147 0.481877,-0.388508 0.180232,-0.263755 0.360672,-0.57237 0.540904,-0.924045 l -0.0064,0.276893 c 0,0.676971 0.166031,1.016341 0.500122,1.016341 0.189023,0 0.409465,-0.103552 0.660032,-0.310162 0.192793,-0.159551 0.385675,-0.353901 0.578468,-0.583832 -0.0128,0.124512 -0.02524,0.250151 -0.03756,0.378847 0,0.03956 0.01538,0.06827 0.04615,0.08586 0.02637,0.01758 0.05508,0.02683 0.08586,0.02683 0.03517,0 0.06592,-0.0092 0.0923,-0.02683 0.03077,-0.01758 0.04615,-0.04318 0.04615,-0.07834 0.105502,-0.303319 0.223359,-0.541181 0.355237,-0.712622 0.131878,-0.175836 0.25285,-0.264013 0.362749,-0.264013 l 0.0601,0.01395 c 0.109897,0.04836 0.164203,0.183634 0.164203,0.407826 0,0.145066 -0.01742,0.296794 -0.05259,0.455047 -0.03077,0.153857 -0.06153,0.272787 -0.0923,0.356309 -0.290132,0.05715 -0.564875,0.139194 -0.824236,0.244696 l -0.01932,0.0064 c -0.232985,0.109899 -0.403207,0.239046 -0.508709,0.388508 -0.105503,0.145066 -0.157764,0.281417 -0.157764,0.408898 0.01759,0.254964 0.144688,0.382067 0.382068,0.382067 0.215401,0 0.457348,-0.117857 0.7255,-0.355237 0.294528,-0.276943 0.501634,-0.585558 0.620324,-0.924045 0.320901,-0.06154 0.595647,-0.161979 0.824236,-0.302648 0.213527,-0.131402 0.414783,-0.352641 0.605298,-0.664326 0.06323,0.07474 0.136723,0.146293 0.218938,0.215717 0.175835,0.149462 0.316274,0.31861 0.421776,0.507636 -0.378049,0.373652 -0.566663,0.690443 -0.566663,0.949802 0,0.09231 0.02355,0.165113 0.07191,0.217864 0.05275,0.04836 0.116302,0.07191 0.191034,0.07191 0.101106,0 0.208745,-0.05022 0.32304,-0.151325 0.114294,-0.105502 0.204513,-0.268522 0.270451,-0.488317 0.03077,-0.114294 0.04615,-0.219892 0.04615,-0.316601 0,-0.101107 -0.01538,-0.195413 -0.04615,-0.283331 0.361485,-0.321321 0.691721,-0.548219 0.989513,-0.681499 -0.07462,0.19021 -0.112688,0.353555 -0.112688,0.490465 0.0044,0.224192 0.0772,0.335919 0.217865,0.335919 0.167044,0 0.376194,-0.153772 0.626762,-0.461487 l 0.157765,-0.191034 0.07942,-0.09874 -0.01288,0.230743 c 0,0.49674 0.157859,0.744818 0.474365,0.744818 0.320903,0 0.760711,-0.230657 1.318992,-0.692229 0.360466,-0.298925 0.540906,-0.47216 0.540906,-0.520515 0,-0.02637 -0.01129,-0.04896 -0.03327,-0.06654 -0.01759,-0.02198 -0.03909,-0.0322 -0.06547,-0.0322 -0.02198,0 -0.04252,0.0082 -0.0601,0.02576 l -0.501196,0.442169 c -0.479154,0.400029 -0.83896,0.599931 -1.080735,0.599931 -0.219797,0 -0.32948,-0.173235 -0.32948,-0.520514 0,-0.09671 0.01226,-0.23306 0.03864,-0.408898 l 0.01395,-0.158837 c -0.0088,-0.09231 -0.03546,-0.138444 -0.07942,-0.138444 -0.03077,0 -0.06153,0.01333 -0.0923,0.03971 -0.03077,0.02638 -0.05948,0.05917 -0.08586,0.09874 -0.02638,0.03517 -0.06326,0.0885 -0.111614,0.158837 -0.08352,0.11869 -0.178903,0.245795 -0.284405,0.382068 -0.180233,0.215401 -0.309381,0.32304 -0.388508,0.32304 -0.05715,-0.0088 -0.08586,-0.05697 -0.08586,-0.144885 0,-0.114293 0.05022,-0.275269 0.151325,-0.481877 0.07913,-0.149462 0.178594,-0.280653 0.297284,-0.394946 0.11869,-0.11869 0.247837,-0.178155 0.388506,-0.178155 0.05715,0 0.114569,0.01333 0.171717,0.03971 l 0.05259,0.01288 c 0.04836,0 0.08836,-0.02462 0.119128,-0.07298 0.0088,-0.01758 0.01288,-0.035 0.01288,-0.05259 0,-0.04835 -0.02355,-0.08728 -0.07191,-0.118054 -0.101106,-0.04836 -0.200573,-0.07298 -0.297284,-0.07298 -0.19342,0 -0.366655,0.07075 -0.520512,0.211424 -0.130704,0.119502 -0.241091,0.257768 -0.330554,0.415338 -0.355929,0.123157 -0.75406,0.37545 -1.193425,0.757697 -0.105502,-0.158254 -0.234649,-0.302779 -0.388506,-0.434657 -0.184629,-0.158253 -0.314851,-0.321271 -0.389581,-0.488315 -0.01319,-0.03956 -0.01932,-0.08161 -0.01932,-0.125569 0,-0.19342 0.109685,-0.375903 0.329481,-0.547344 0.219795,-0.175836 0.42486,-0.26294 0.613883,-0.26294 0.101108,0 0.182079,0.0328 0.243623,0.09874 0.03077,0.03077 0.06153,0.04615 0.0923,0.04615 0.03517,0 0.06592,-0.01333 0.0923,-0.03971 0.03077,-0.02638 0.04615,-0.05713 0.04615,-0.0923 0,-0.03077 -0.01129,-0.05948 -0.03327,-0.08586 -0.11869,-0.123087 -0.26117,-0.184593 -0.428216,-0.184593 -0.272547,0 -0.547293,0.118928 -0.824236,0.356308 -0.276943,0.232986 -0.415336,0.474933 -0.415336,0.7255 0,0.05275 0.0082,0.105012 0.02576,0.157763 0.02469,0.05555 0.05358,0.110009 0.08693,0.163132 -4.49e-4,6.09e-4 -6.29e-4,0.0015 -0.0011,0.0021 -0.167044,0.294527 -0.344367,0.507764 -0.533392,0.639642 -0.184629,0.131878 -0.418402,0.226184 -0.699742,0.283329 0.06594,-0.250567 0.09874,-0.483266 0.09874,-0.698667 0,-0.422009 -0.129147,-0.655784 -0.388507,-0.699741 h -0.03971 c -0.241775,0 -0.474476,0.195814 -0.698668,0.587053 l 0.07191,-0.685791 0.07298,-0.237183 c 0.457176,-1.485822 0.685789,-2.471034 0.685789,-2.954585 0,-0.202213 -0.05022,-0.302648 -0.151325,-0.302648 -0.145065,0.03077 -0.283458,0.318849 -0.415336,0.863945 -0.201046,0.815347 -0.37408,1.878151 -0.518369,3.188548 -9.78e-4,9.2e-4 -0.0023,0.0012 -0.0032,0.0021 -0.54949,0.698952 -0.958543,1.04854 -1.226693,1.04854 -0.211005,0 -0.315529,-0.232701 -0.315529,-0.69867 0,-0.224192 0.02559,-0.514313 0.07835,-0.870383 0,-0.08352 -0.03689,-0.129655 -0.111616,-0.138446 -0.07034,0 -0.116466,0.02667 -0.138445,0.07942 -0.20661,0.422009 -0.398339,0.786974 -0.574175,1.094689 -0.171441,0.303319 -0.298546,0.455047 -0.382067,0.455047 -0.04396,0 -0.06654,-0.07076 -0.06654,-0.211424 0,-0.20661 0.05947,-0.600285 0.178155,-1.180547 0,-0.09231 -0.0328,-0.142534 -0.09874,-0.151325 l -0.03327,-0.0064 c -0.05715,0 -0.09607,0.03484 -0.118054,0.105176 -0.03598,0.181225 -0.06615,0.347048 -0.09122,0.497977 -0.165348,0.289211 -0.342282,0.499644 -0.5291,0.629983 -0.184629,0.131878 -0.41733,0.226184 -0.698667,0.283329 0.06594,-0.250567 0.09874,-0.483266 0.09874,-0.698667 0,-0.422009 -0.129147,-0.655784 -0.388508,-0.699741 h -0.03971 c -0.241776,0 -0.474477,0.195814 -0.69867,0.587053 l 0.07191,-0.685791 0.07298,-0.237183 c 0.457176,-1.485822 0.68579,-2.471034 0.68579,-2.954585 0,-0.202213 -0.05129,-0.302648 -0.152399,-0.302648 z m -0.0322,0.31016 c -0.01319,0.290131 -0.134162,0.859087 -0.362751,1.707501 l 0.03327,-0.211426 c 0.109898,-0.742912 0.219581,-1.241111 0.32948,-1.496075 z m 5.413341,0 c -0.01319,0.290131 -0.134162,0.859087 -0.362751,1.707501 l 0.03327,-0.211426 c 0.109899,-0.742912 0.219582,-1.241111 0.329481,-1.496075 z m -13.577357,0.184595 c -0.417612,0 -0.927102,0.968762 -1.529343,2.907363 -0.05715,-1.050626 -0.151454,-1.832816 -0.283332,-2.34714 -0.06154,-0.224192 -0.125095,-0.335918 -0.191034,-0.335918 -0.04835,0 -0.09964,0.06764 -0.152396,0.203912 -0.02638,0.06154 -0.04175,0.204024 -0.04615,0.428216 0,0.03517 0.01129,0.06592 0.03327,0.0923 0.02638,0.02638 0.05713,0.03971 0.0923,0.03971 0.03517,0 0.06388,-0.01022 0.08586,-0.0322 0.02198,0.101105 0.0394,0.216919 0.05259,0.348797 0.09231,0.633013 0.15178,1.430583 0.178155,2.39329 l -0.07942,0.330552 c -0.263756,1.03744 -0.394946,1.871892 -0.394946,2.504905 0,0.23738 0.01742,0.41782 0.05259,0.540904 0.03956,0.127484 0.0857,0.191034 0.138447,0.191034 0.07473,0 0.153659,-0.115813 0.237182,-0.348797 0.08352,-0.232983 0.156322,-0.589776 0.217865,-1.06893 0.06154,-0.479157 0.0923,-1.092199 0.0923,-1.839506 l -0.0064,-0.501196 c 0.597847,-2.162795 1.085828,-3.244356 1.463878,-3.244356 0.259359,0 0.461307,0.479808 0.606372,1.438119 0.162648,1.103379 0.243621,2.485279 0.243621,4.146939 0,0.03517 0.01333,0.06592 0.03971,0.0923 0.02638,0.02198 0.05509,0.03327 0.08586,0.03327 0.03517,0 0.06592,-0.01129 0.0923,-0.03327 0.02638,-0.02638 0.03971,-0.05713 0.03971,-0.0923 0,-0.197817 0.09839,-0.559667 0.29621,-1.087178 0.197816,-0.527511 0.409008,-1.051406 0.6332,-1.570126 0.224192,-0.523114 0.391299,-0.90034 0.501196,-1.133324 0.05275,-0.109899 0.09888,-0.211407 0.138446,-0.303722 0.07473,-0.167044 0.134196,-0.294149 0.178156,-0.382067 0.04835,-0.09231 0.08524,-0.138447 0.111614,-0.138447 0.05715,0 0.08586,0.254209 0.08586,0.764135 0,0.945126 -0.002,1.765274 -0.0064,2.45983 0,0.654994 0.01946,1.259862 0.05903,1.813749 0.05715,0.90556 0.227369,1.357628 0.508707,1.357628 0.06154,0 0.129182,-0.02151 0.203912,-0.06547 0.03956,-0.02638 0.05903,-0.06122 0.05903,-0.105176 0,-0.02198 -0.0061,-0.04456 -0.01932,-0.06654 -0.03077,-0.04396 -0.06873,-0.06547 -0.112688,-0.06547 -0.02198,0 -0.04145,0.0041 -0.05903,0.01288 -0.01758,0.01319 -0.035,0.01932 -0.05259,0.01932 -0.02638,0 -0.051,-0.01742 -0.07298,-0.05259 -0.105502,-0.193422 -0.175183,-0.551183 -0.210352,-1.074297 -0.03077,-0.527511 -0.04615,-1.105713 -0.04615,-1.734332 l 0.0064,-2.4008 c -0.0088,-0.422009 -0.03546,-0.724393 -0.07942,-0.909022 -0.03956,-0.184628 -0.09698,-0.276891 -0.171715,-0.276891 -0.08352,0 -0.183958,0.100437 -0.302648,0.30265 -0.11869,0.197817 -0.248913,0.453097 -0.389582,0.765209 -0.219795,0.479154 -0.448409,1.009182 -0.685789,1.589444 -0.232985,0.580263 -0.425685,1.091795 -0.579541,1.535782 -0.0044,-0.360464 -0.01977,-0.762313 -0.04615,-1.206303 -0.02198,-0.443988 -0.05994,-0.893043 -0.112688,-1.345822 -0.04836,-0.457178 -0.113951,-0.876447 -0.197474,-1.258892 -0.07913,-0.386841 -0.178592,-0.699544 -0.297282,-0.936924 -0.114295,-0.23738 -0.250646,-0.355238 -0.4089,-0.355238 z m -1.753648,4.496807 c -0.01758,0.839623 -0.05963,1.458797 -0.125566,1.858825 -0.05866,0.377089 -0.107267,0.574744 -0.145958,0.592419 -0.0013,3.87e-4 -0.0041,0.0011 -0.0054,0.0011 -5.4e-4,-4.4e-5 -0.0027,8.7e-5 -0.0032,0 -0.03195,-0.0081 -0.04937,-0.0976 -0.04937,-0.269379 0,-0.492345 0.109683,-1.220231 0.329478,-2.182939 z m 17.776882,0.171718 0.01395,0.111614 c 0,0.06594 -0.01129,0.136694 -0.03327,0.211426 -0.04396,0.153857 -0.101382,0.267627 -0.171716,0.342359 -0.06594,0.07473 -0.120245,0.112688 -0.164203,0.112688 -0.04836,0 -0.07298,-0.03387 -0.07298,-0.09981 0,-0.158253 0.14248,-0.383752 0.428216,-0.678277 z m -7.85278,0.105176 c -0.109899,0.241774 -0.267755,0.461142 -0.474365,0.658959 -0.224192,0.197816 -0.409791,0.297283 -0.554857,0.297283 -0.114293,-0.01319 -0.170641,-0.07061 -0.170641,-0.171717 0,-0.07913 0.04097,-0.173433 0.124493,-0.283329 0.08352,-0.109899 0.215787,-0.206249 0.396019,-0.289772 l 0.01932,-0.0075 c 0.202213,-0.08792 0.422652,-0.155558 0.660032,-0.203912 z m 5.413341,0 c -0.109897,0.241774 -0.267756,0.461142 -0.474363,0.658959 -0.224192,0.197816 -0.40872,0.297283 -0.553785,0.297283 -0.114293,-0.01319 -0.171715,-0.07061 -0.171715,-0.171717 0,-0.07913 0.04205,-0.173433 0.125566,-0.283329 0.08352,-0.109899 0.214714,-0.206249 0.394948,-0.289772 l 0.02039,-0.0075 c 0.202213,-0.08792 0.421579,-0.155558 0.658959,-0.203912 z" />
    <g
       id="g13"
       inkscape:export-filename="fabicon.png"
       inkscape:export-xdpi="42.933369"
       inkscape:export-ydpi="42.933369">
      <path
         id="path10"
         style="fill:#3e0c4c;fill-opacity:1;stroke-width:0.76500011;stroke:#ffffff;stroke-opacity:1;stroke-dasharray:none"
         d="m 57.431637,38.186816 c -0.45137,0.0011 -0.923423,0.05971 -1.413351,0.192237 -2.84797,0.770353 -4.817629,4.212186 -5.598108,5.817732 -3.366568,0.03305 -5.394765,0.852694 -5.394503,1.406116 -3.66e-4,0.779402 4.237588,1.411266 9.465573,1.411284 0.03764,0 0.07512,-4.52e-4 0.112654,-5.17e-4 h 5.17e-4 l 7.149951,0.991671 0.122473,-0.8816 -2.34921,-0.326079 c 2.661444,-0.249791 4.42994,-0.691269 4.429703,-1.194759 2.49e-4,-0.523937 -1.646874,-0.367294 -4.28966,-0.490409 -0.350541,-0.779825 -0.887591,-2.074668 -1.009241,-2.941423 -0.245627,-1.75009 4.068486,-1.182356 4.068486,-1.182356 0,0 -2.135697,-2.809677 -5.295284,-2.801897 z" />
      <g
         id="g9"
         transform="translate(24.009996,2.333453)"
         inkscape:export-filename="fabicon.png"
         inkscape:export-xdpi="42.933369"
         inkscape:export-ydpi="42.933369">
        <path
           id="path3"
           style="fill:#3e0c4c;fill-opacity:1;stroke-width:0.264583"
           d="m 31.156817,42.287756 c -6.118384,-1.105301 -10.141416,0.202036 -10.141046,0.981438 -3.66e-4,0.779402 4.237588,1.411265 9.465573,1.411283 5.228186,2.5e-5 9.466454,-0.631851 9.466088,-1.411283 3.7e-4,-0.779432 -3.645705,-0.052 -8.790615,-0.981438 z"
           sodipodi:nodetypes="scscs" />
        <path
           style="fill:#51285d;fill-opacity:1;stroke-width:0.264583"
           d="m 26.036415,42.692968 c 0,0 2.225992,-5.63406 5.971796,-6.647271 3.919422,-1.060174 6.708675,2.609784 6.708675,2.609784 0,0 -4.313816,-0.568012 -4.068189,1.182078 0.184242,1.31272 1.320242,3.607638 1.320242,3.607638 0,0 -0.765314,0.570999 -5.680113,0.291685 -4.914799,-0.279313 -4.252411,-1.043914 -4.252411,-1.043914 z"
           id="path6"
           sodipodi:nodetypes="cscsczc" />
        <rect
           style="fill:#734823;fill-opacity:1;stroke:none;stroke-width:0.264583;stroke-opacity:1"
           id="rect6"
           width="14.154231"
           height="0.8903963"
           x="29.506973"
           y="39.162987"
           transform="rotate(7.896795)" />
        <circle
           style="fill:url(#radialGradient9);stroke:none;stroke-width:0.877459;stroke-opacity:1"
           id="circle7"
           cx="33.348732"
           cy="41.640022"
           r="5.9057927" />
        <circle
           style="fill:#fffa5b;fill-opacity:1;stroke:none;stroke-width:0.194803;stroke-opacity:1"
           id="circle8"
           cx="23.856483"
           cy="43.153519"
           r="1.0285612" />
        <circle
           style="fill:url(#radialGradient10);stroke:none;stroke-width:0.264583;stroke-opacity:1"
           id="circle9"
           cx="23.87183"
           cy="43.076759"
           r="1.7807926" />
      </g>
    </g>
  </g>
</svg>
